
Release info:

General
Format                                   : Matroska
Format version                           : Version 2
File size                                : 686 MiB
Duration                                 : 1h 59mn
Overall bit rate mode                    : Variable
Overall bit rate                         : 802 Kbps
Movie name                               : Life Goes On 2012 DVDRip 

Video
ID                                       : 1
Format                                   : MPEG-4 Visual
Format profile                           : Advanced Simple@L5
Format settings, BVOP                    : Yes
Format settings, QPel                    : No
Format settings, GMC                     : No warppoints
Format settings, Matrix                  : Default (H.263)
Codec ID                                 : V_MS/VFW/FOURCC / XVID
Codec ID/Hint                            : XviD
Duration                                 : 1h 59mn
Bit rate                                 : 722 Kbps
Width                                    : 640 pixels
Height                                   : 256 pixels
Display aspect ratio                     : 2.500
Frame rate mode                          : Constant
Frame rate                               : 29.970 fps
Color space                              : YUV
Chroma subsampling                       : 4:2:0
Bit depth                                : 8 bits
Scan type                                : Progressive
Compression mode                         : Lossy
Bits/(Pixel*Frame)                       : 0.147
Stream size                              : 617 MiB (90%)
Title                                    : Life Goes On 2012 DVDRip 
Language                                 : English
Default                                  : Yes
Forced                                   : No

Audio
ID                                       : 2
Format                                   : MPEG Audio
Format version                           : Version 1
Format profile                           : Layer 3
Muxing mode                              : Header stripping
Codec ID                                 : A_MPEG/L3
Codec ID/Hint                            : MP3
Duration                                 : 1h 54mn
Bit rate mode                            : Variable
Bit rate                                 : 64.0 Kbps
Channel(s)                               : 1 channel
Sampling rate                            : 48.0 KHz
Compression mode                         : Lossy
Stream size                              : 52.3 MiB (8%)
Title                                    : Life Goes On 2012 DVDRip 
Language                                 : English
Default                                  : Yes
Forced                                   : No



Source:
credit to original movie ripper TEAM DST (Thanks)

Movie Info:

Film: ΓÇ£Life Goes OnΓÇ¥
Cast: Sharmila Tagore, Girish Karnad, Om Puri, Soha Ali Khan, Mukulika Banerjee, Neerja Naik and Rez Kempton
Written and Directed by: Sangeeta Dutta
Rating: 4/5

One of the many pleasures of watching this supple evocative family saga is to see the timeless Sharmila Tagore share screen space with her real-life daughter Soha, who by the way, has never looked lovelier.

That inner-glow comes from the company she keeps in this gentle drama suffused in melodious whispers and mellifluent suggestions of tunes long-forgotten and yet stored in the most inviolable chambers of the heart....



Screen Shot:
 
http://www.shotpix.com/images/80609539574729384454.png 
http://www.shotpix.com/images/94011747112982844937.png 
http://www.shotpix.com/images/86842905368185112981.png 
http://www.shotpix.com/images/79315464046251877061.png